<?xml version="1.0" encoding="utf-8"?>
<svg id="Layer_1" class="logo-icon" data-name="Layer 1" xmlns="http://www.w3.org/2000/svg" viewBox="0 0 378.59 100.17">
  <defs><style>.cls-1,.cls-2{fill:#0d97ff;}.cls-2{opacity:0.48;}</style></defs>
  <path class="cls-1 st1" d="M121.14,39a20.41,20.41,0,0,0,2-.4C122.51,38.73,121.82,38.87,121.14,39Z" fill="#000" transform="translate(-50.06 -32.81)"/>
  <g id="SIMPLE_custom" data-name="SIMPLE custom">
    <path class="cls-1 st1" d="M205,79.8c8.52,2.07,13,5.13,13,11.86,0,7.6-5.93,12.09-14.39,12.09A24.74,24.74,0,0,1,187.54,98a1,1,0,0,1-.11-1.41l3-3.54a1,1,0,0,1,1.41-.12c3.61,2.94,7.28,4.6,12,4.6,4.37,0,7.14-2,7.14-5.12,0-2.94-1.61-4.49-9.09-6.22-8.58-2.07-13.42-4.61-13.42-12.09,0-7,5.76-11.75,13.76-11.75A22.3,22.3,0,0,1,216,66.77a1,1,0,0,1,.21,1.38l-2.66,3.75a1,1,0,0,1-1.4.23A17.72,17.72,0,0,0,202,68.57c-4.15,0-6.56,2.13-6.56,4.84C195.48,76.58,197.32,78,205,79.8Z" transform="translate(-50.06 -32.81)"/>
    <path class="cls-1 st1" d="M240.73,63.87v38.31a1,1,0,0,1-1,1h-5.09a1,1,0,0,1-1-1V63.87a1,1,0,0,1,1-1h5.09A1,1,0,0,1,240.73,63.87Z" transform="translate(-50.06 -32.81)"/>
    <path class="cls-1 st1" d="M275.65,89.78L267.2,77.13a1,1,0,0,0-1.83.56v24.49a1,1,0,0,1-1,1h-5a1,1,0,0,1-1-1V63.87a1,1,0,0,1,1-1h6a1,1,0,0,1,.84.46l11.13,17.3a1,1,0,0,0,1.68,0l11.13-17.3a1,1,0,0,1,.84-0.46h6a1,1,0,0,1,1,1v38.31a1,1,0,0,1-1,1h-5.08a1,1,0,0,1-1-1V77.56A1,1,0,0,0,289.1,77l-8.55,12.77a1,1,0,0,1-.83.44h-3.24A1,1,0,0,1,275.65,89.78Z" transform="translate(-50.06 -32.81)"/>
    <path class="cls-1 st1" d="M330.37,90.22h-7a1,1,0,0,0-1,1v11a1,1,0,0,1-1,1h-5.08a1,1,0,0,1-1-1V63.87a1,1,0,0,1,1-1h14.89c9.38,0,15.31,5.3,15.31,13.53C346.49,85.5,339.24,90.22,330.37,90.22Zm0.23-20.9h-7.23a1,1,0,0,0-1,1V82.84a1,1,0,0,0,1,1h7.23c5.36,0,8.7-2.94,8.7-7.26C339.3,71.8,335.9,69.32,330.6,69.32Z" transform="translate(-50.06 -32.81)"/>
    <path class="cls-1 st1" d="M359.93,62.87H365a1,1,0,0,1,1,1V95.73a1,1,0,0,0,1,1H386.2a1,1,0,0,1,1,1v4.45a1,1,0,0,1-1,1H359.93a1,1,0,0,1-1-1V63.87A1,1,0,0,1,359.93,62.87Z" transform="translate(-50.06 -32.81)"/>
    <path class="cls-1 st4" d="M427.65,69.21h-21.1a1,1,0,0,0-1,1v8.48a1,1,0,0,0,1,1h20.35a1,1,0,0,1,1,1V85a1,1,0,0,1-1,1H406.55a1,1,0,0,0-1,1v8.82a1,1,0,0,0,1,1h21.1a1,1,0,0,1,1,1v4.34a1,1,0,0,1-1,1H399.47a1,1,0,0,1-1-1V63.87a1,1,0,0,1,1-1h28.18a1,1,0,0,1,1,1v4.34A1,1,0,0,1,427.65,69.21Z" transform="translate(-50.06 -32.81)"/>
  </g>
  <path class="cls-2 st1" d="M148.95,69.34a30.42,30.42,0,0,0-11.62-16.4,29.66,29.66,0,0,0-4.6-2.69,1.33,1.33,0,0,1-.61-0.63,33.09,33.09,0,0,0-2.77-4.54,30.52,30.52,0,0,0-16.59-11.36,28.9,28.9,0,0,0-7.47-.91,31,31,0,0,0-12.53,2.77,31.64,31.64,0,0,0-4.7,2.68,1.32,1.32,0,0,1-.71.21h0c-0.78-.06-1.56-0.08-2.29-0.08a28.14,28.14,0,0,0-3.08.19A30.48,30.48,0,0,0,72.1,41.4a29.84,29.84,0,0,0-8.26,5.85,30.34,30.34,0,0,0-8.43,23.59,1.38,1.38,0,0,1-.22.84,33,33,0,0,0-2.57,4.67A29.57,29.57,0,0,0,62.7,112.78a29.57,29.57,0,0,0,4.61,2.7,1.4,1.4,0,0,1,.61.62,30.8,30.8,0,0,0,2.76,4.54,30.28,30.28,0,0,0,7.38,7.12A29.93,29.93,0,0,0,87.27,132a29.06,29.06,0,0,0,7.49.92,30.85,30.85,0,0,0,12.51-2.78,31.44,31.44,0,0,0,4.7-2.67,1.35,1.35,0,0,1,.71-0.2c0.71,0,1.47.07,2.33,0.07a29.69,29.69,0,0,0,29.59-27.12,32.65,32.65,0,0,0,0-5.33,1.31,1.31,0,0,1,.22-0.85,31.4,31.4,0,0,0,2.56-4.66A30.86,30.86,0,0,0,150,76.82,28.33,28.33,0,0,0,148.95,69.34ZM97.7,38.48a26.47,26.47,0,0,1,7.6-1.18,24.42,24.42,0,0,1,6.34.77,25.74,25.74,0,0,1,12,7.15,1.18,1.18,0,0,1,.23,1.27,1.2,1.2,0,0,1-1.07.72,0.48,0.48,0,0,1-.18,0,33.5,33.5,0,0,0-3.35-.32c-0.69,0-1.44-.06-2.31,0a44.45,44.45,0,0,0-7.28.68l-0.16,0a1.28,1.28,0,0,1-.74-0.26A41.7,41.7,0,0,0,100.7,42a33.17,33.17,0,0,0-3.07-1.34,1.13,1.13,0,0,1-.74-1.13A1.14,1.14,0,0,1,97.7,38.48ZM82.22,50.62a30.87,30.87,0,0,1,6.4-7.16,1.2,1.2,0,0,1,.76-0.27h0.18a31.4,31.4,0,0,1,9.16,2.86c0.83,0.4,1.7.88,2.68,1.46a1.18,1.18,0,0,1,.55,1.15,1.14,1.14,0,0,1-.82,1c-1.16.36-2.26,0.72-3.34,1.08l-0.44.15c-2.32.75-4,1.28-5.69,1.76s-3.34.85-5.12,1.25L85.9,54c-1.28.28-2.56,0.57-3.9,0.9a0.89,0.89,0,0,1-.27,0,1.16,1.16,0,0,1-1-.57,1.18,1.18,0,0,1,0-1.15C81.15,52.36,81.67,51.47,82.22,50.62ZM64.77,93.19a42.64,42.64,0,0,0-.46,9.49c0.07,1,.2,2.15.38,3.32a1.17,1.17,0,0,1-.25,1,1.24,1.24,0,0,1-.89.41,1.12,1.12,0,0,1-.8-0.31A24.86,24.86,0,0,1,55.6,81.24a1.18,1.18,0,0,1,2.22-.11c0.41,1,.88,2.07,1.38,3.06a42.73,42.73,0,0,0,5.27,7.92A1.33,1.33,0,0,1,64.77,93.19ZM68,80.69c-0.39,1.24-.78,2.5-1.18,3.82a1.16,1.16,0,0,1-1.11.85,1.14,1.14,0,0,1-1-.55,28.93,28.93,0,0,1-1.51-2.64,31,31,0,0,1-3.05-9.45,27.22,27.22,0,0,1-.24-6.78c0-.46.09-0.88,0.16-1.31a24.9,24.9,0,0,1,19.15-21,1.2,1.2,0,0,1,.28,0,1.12,1.12,0,0,1,1,.65,1.15,1.15,0,0,1-.13,1.25c-0.66.84-1.31,1.75-2,2.71a42.08,42.08,0,0,0-4.35,8.9,0.48,0.48,0,0,1-.29.3,43,43,0,0,0-8.07,4l-0.35.24L65,61.86l-0.2.14-0.09.06-0.15.1-0.08.06-0.19.12a0.38,0.38,0,0,0-.15.24,3.1,3.1,0,0,0,0,.33l0,0.34q0,0.34-.07.68-0.06.69-.1,1.39t0,1.43c0,0.13,0,.26,0,0.38a0.5,0.5,0,0,0,.79.41c0.6-.42,1.21-0.83,1.83-1.25L66.85,66c0.21-.16.42-0.31,0.64-0.45l0.35-.23c0.67-.45,1.42-0.9,2.25-1.36a1.24,1.24,0,0,1,1.49.3,1.23,1.23,0,0,1,.23,1c-0.28,1.16-.51,2.28-0.74,3.36l-0.12.55c-0.37,1.88-.79,3.88-1.29,5.8s-1,3.54-1.57,5.36Zm4.45,32.06-1.2-.44-0.15-.09L71,112a31.61,31.61,0,0,1-2.21-9.67,28.41,28.41,0,0,1-.07-3,1.16,1.16,0,0,1,1.17-1.14,1.15,1.15,0,0,1,.79.3c1,0.94,2,1.83,3,2.68l0.23,0.21c1.36,1.21,2.79,2.51,4.14,3.82s2.64,2.73,4.09,4.31c0.38,0.41.77,0.82,1.15,1.24l0.11,0.12a0.15,0.15,0,0,0,.12,0,33.84,33.84,0,0,0,4.61-.41,0.5,0.5,0,0,0,.28-0.85c-1-1-1.92-2-3-3.18L84.94,106c-1.18-1.28-2.46-2.65-3.77-3.94s-2.57-2.43-3.85-3.58l-0.71-.64c-1.53-1.37-3-2.65-4.46-4.09-0.67-.62-1.33-1.28-2-1.94a1.38,1.38,0,0,1-.34-1.25c0.21-.9.43-1.79,0.67-2.65,0.52-1.94,1.09-3.75,1.58-5.3l0.32-1.06c0.57-1.85,1.12-3.6,1.57-5.4s0.91-3.86,1.36-6l0.18-.88c0.33-1.53.7-3.27,1.15-5.07,0.19-.79.42-1.68,0.7-2.63a1.41,1.41,0,0,1,.93-0.94c0.78-.24,1.51-0.44,2.18-0.63l0.43-.12c2.12-.55,4.11-1,5.94-1.41l0.74-.17c1.82-.42,3.53-0.82,5.24-1.29s3.6-1.09,5.33-1.64l0.56-.18c1.81-.6,3.75-1.24,5.81-1.85,1.21-.34,2.19-0.6,3.1-0.81a43.64,43.64,0,0,1,6.85-1.08c0.84-.07,1.68-0.11,2.5-0.11,0.67,0,1.34,0,2,0a31.29,31.29,0,0,1,9.67,2.07,0.49,0.49,0,0,1,.3.28,31.2,31.2,0,0,1,2.23,9.67c0.06,0.94.08,1.93,0.06,3a1.17,1.17,0,0,1-2,.84c-1-.94-2-1.83-3-2.68l-0.5-.45c-1.36-1.22-2.65-2.39-3.87-3.57s-2.46-2.55-3.74-3.92l-0.38-.41-0.82-.9-0.34-.37a0.41,0.41,0,0,0-.3-0.11,33.59,33.59,0,0,0-4.5.41,0.51,0.51,0,0,0-.29.85c0.87,0.91,1.71,1.82,2.65,2.81l0.77,0.85c1.22,1.31,2.48,2.67,3.8,4s2.92,2.76,4.38,4.07l0.69,0.6,0.54,0.5c1.11,1,2.26,2,3.43,3.16,0.67,0.64,1.43,1.4,2.23,2.25a0.55,0.55,0,0,1,.13.46c-0.23,1.07-.49,2.11-0.77,3.11-0.55,2.05-1.12,3.89-1.67,5.67l-0.13.42c-0.6,1.93-1.17,3.76-1.67,5.67s-0.88,3.75-1.35,6l-0.24,1.15c-0.33,1.54-.68,3.14-1.09,4.82q-0.33,1.38-.84,3.09a0.53,0.53,0,0,1-.34.33c-1.11.35-2.15,0.65-3,.89-2.12.56-4.12,1-5.92,1.42l-0.29.06c-1.87.43-3.81,0.87-5.72,1.39s-3.83,1.16-5.72,1.74l-0.06,0-0.94.31c-1.59.52-3.23,1.06-5,1.57l-0.12,0c-0.7.21-1.77,0.51-3,.79a45.46,45.46,0,0,1-6.84,1.08c-0.83.07-1.68,0.11-2.5,0.11-0.67,0-1.36,0-2,0l-1.27-.09-1.12-.13-0.34,0L77.38,114a1,1,0,0,1-.19,0c-0.3,0-.6-0.11-0.88-0.18-0.56-.1-1.12-0.23-1.66-0.37S73.24,113,72.44,112.75Zm29.89,14.49a26.43,26.43,0,0,1-7.6,1.19,24.77,24.77,0,0,1-6.35-.77,25.75,25.75,0,0,1-12-7.16,1.16,1.16,0,0,1-.23-1.26,1.18,1.18,0,0,1,1.07-.71h0.19c1.09,0.16,2.22.28,3.33,0.34,0.77,0,1.56.06,2.35,0a44.19,44.19,0,0,0,7.22-.69h0.2a1.2,1.2,0,0,1,.72.24,43,43,0,0,0,8.08,5.23c1,0.46,2,.91,3.07,1.32a1.19,1.19,0,0,1,.76,1.14A1.17,1.17,0,0,1,102.33,127.24Zm15.47-12.13a30.61,30.61,0,0,1-6.39,7.15,1.12,1.12,0,0,1-.74.28l-0.19,0a30.6,30.6,0,0,1-9.17-2.85c-0.94-.46-1.84-1-2.68-1.46a1.19,1.19,0,0,1,.27-2.14c1-.31,2-0.62,3-1l0.83-.26c2-.65,3.81-1.25,5.67-1.78,1.64-.45,3.32-0.84,5.09-1.23l0.71-.17c1.26-.28,2.54-0.57,3.87-0.89a1.34,1.34,0,0,1,.28,0,1.14,1.14,0,0,1,1,.57,1.18,1.18,0,0,1,0,1.14C118.87,113.39,118.34,114.28,117.8,115.11ZM140.12,99.8c0,0.45-.09.89-0.17,1.32a24.88,24.88,0,0,1-19.14,21,1.17,1.17,0,0,1-.27,0,1.18,1.18,0,0,1-.92-1.91c0.68-.85,1.33-1.76,1.95-2.71a43.27,43.27,0,0,0,4.22-8.54,1.4,1.4,0,0,1,.8-0.8,41.77,41.77,0,0,0,7.82-3.94l0.35-.23,0.37-.24,0.2-.14,0.09-.06,0.23-.16,0.22-.15a0.23,0.23,0,0,0,.07-0.07,0.06,0.06,0,0,0,0,0,2.25,2.25,0,0,0,.06-0.25,31.42,31.42,0,0,0,.27-4.4,0.5,0.5,0,0,0-.79-0.41c-1,.67-1.92,1.31-3,2-0.77.52-1.65,1.06-2.61,1.59a1.11,1.11,0,0,1-.55.15,1.17,1.17,0,0,1-.94-0.44,1.23,1.23,0,0,1-.23-1c0.25-1,.45-2,0.65-3l0.21-.92c0.34-1.74.77-3.8,1.29-5.82,0.47-1.79,1-3.6,1.58-5.35l0.1-.32c0.39-1.24.77-2.51,1.16-3.84a1.17,1.17,0,0,1,1.13-.84,1.23,1.23,0,0,1,1,.54c0.6,1,1.09,1.83,1.5,2.65A31.29,31.29,0,0,1,139.88,93,26.75,26.75,0,0,1,140.12,99.8Zm4.32-15.28a1.17,1.17,0,0,1-2.21.09c-0.41-1-.88-2.06-1.38-3a43.45,43.45,0,0,0-5.29-7.93,1.35,1.35,0,0,1-.29-1.08,42.8,42.8,0,0,0,.47-9.49c-0.1-1.18-.22-2.31-0.39-3.33a1.16,1.16,0,0,1,.25-0.93,1.21,1.21,0,0,1,.91-0.42,1.13,1.13,0,0,1,.79.3A24.93,24.93,0,0,1,144.44,84.52Z" transform="translate(-50.06 -32.81)"/>
  <path class="cls-1 st1" d="M149,69.4A30.42,30.42,0,0,0,137.33,53a29.67,29.67,0,0,0-4.6-2.69,1.33,1.33,0,0,1-.61-0.63,33.09,33.09,0,0,0-2.77-4.54,30.52,30.52,0,0,0-16.59-11.36,28.9,28.9,0,0,0-7.47-.91,31,31,0,0,0-12.53,2.77,31.64,31.64,0,0,0-4.7,2.68,1.32,1.32,0,0,1-.71.21h0c-0.78-.06-1.56-0.08-2.29-0.08a28.15,28.15,0,0,0-3.08.19,30.48,30.48,0,0,0-9.87,2.82,29.85,29.85,0,0,0-8.26,5.85A30.34,30.34,0,0,0,55.41,70.9a1.38,1.38,0,0,1-.22.84,33,33,0,0,0-2.57,4.67A29.57,29.57,0,0,0,62.7,112.84a29.58,29.58,0,0,0,4.61,2.7,1.4,1.4,0,0,1,.61.62,30.8,30.8,0,0,0,2.76,4.54,30.28,30.28,0,0,0,7.38,7.12,29.93,29.93,0,0,0,9.21,4.24,29.06,29.06,0,0,0,7.49.92,30.85,30.85,0,0,0,12.51-2.78,31.45,31.45,0,0,0,4.7-2.67,1.35,1.35,0,0,1,.71-0.2c0.71,0,1.47.07,2.33,0.07a29.69,29.69,0,0,0,29.59-27.12,32.65,32.65,0,0,0,0-5.33,1.31,1.31,0,0,1,.22-0.85,31.41,31.41,0,0,0,2.56-4.66A30.86,30.86,0,0,0,150,76.88,28.33,28.33,0,0,0,149,69.4ZM97.7,38.54a26.47,26.47,0,0,1,7.6-1.18,24.42,24.42,0,0,1,6.34.77,25.74,25.74,0,0,1,12,7.15,1.18,1.18,0,0,1,.23,1.27,1.2,1.2,0,0,1-1.07.72,0.49,0.49,0,0,1-.18,0,33.46,33.46,0,0,0-3.35-.32c-0.69,0-1.44-.06-2.31,0a44.44,44.44,0,0,0-7.28.68l-0.16,0a1.28,1.28,0,0,1-.74-0.26,41.7,41.7,0,0,0-8.07-5.21,33.18,33.18,0,0,0-3.07-1.34,1.13,1.13,0,0,1-.74-1.13A1.14,1.14,0,0,1,97.7,38.54ZM82.22,50.68a30.88,30.88,0,0,1,6.4-7.16,1.2,1.2,0,0,1,.76-0.27h0.18a31.4,31.4,0,0,1,9.16,2.86c0.83,0.4,1.7.88,2.68,1.46a1.18,1.18,0,0,1,.55,1.15,1.14,1.14,0,0,1-.82,1c-1.16.36-2.26,0.72-3.34,1.08l-0.44.15c-2.32.75-4,1.28-5.69,1.76s-3.34.85-5.12,1.25l-0.64.15c-1.28.28-2.56,0.57-3.9,0.9a0.88,0.88,0,0,1-.27,0,1.16,1.16,0,0,1-1-.57,1.18,1.18,0,0,1,0-1.15C81.15,52.42,81.67,51.53,82.22,50.68ZM64.77,93.25a42.64,42.64,0,0,0-.46,9.49c0.07,1,.2,2.15.38,3.32a1.17,1.17,0,0,1-.25,1,1.24,1.24,0,0,1-.89.41,1.12,1.12,0,0,1-.8-0.31A24.86,24.86,0,0,1,55.6,81.3a1.18,1.18,0,0,1,2.22-.11c0.41,1,.88,2.07,1.38,3.06a42.73,42.73,0,0,0,5.27,7.92A1.33,1.33,0,0,1,64.77,93.25ZM68,80.75c-0.39,1.24-.78,2.5-1.18,3.82a1.16,1.16,0,0,1-1.11.85,1.14,1.14,0,0,1-1-.55,28.92,28.92,0,0,1-1.51-2.64,31,31,0,0,1-3-9.45A27.22,27.22,0,0,1,59.9,66c0-.46.09-0.88,0.16-1.31a24.9,24.9,0,0,1,19.15-21,1.2,1.2,0,0,1,.28,0,1.12,1.12,0,0,1,1,.65,1.15,1.15,0,0,1-.13,1.25c-0.66.84-1.31,1.75-2,2.71a42.08,42.08,0,0,0-4.35,8.9,0.48,0.48,0,0,1-.29.3,43,43,0,0,0-8.07,4c-0.45.29-.88,0.59-1.32,0.89a0.75,0.75,0,0,0-.34.73c0,0.31-.05.62-0.08,0.93s-0.07.93-.09,1.39,0,1,0,1.42v0.39a0.5,0.5,0,0,0,.79.41c0.6-.42,1.21-0.83,1.83-1.25l0.36-.25c0.21-.16.42-0.31,0.64-0.45l0.35-.23c0.67-.45,1.42-0.9,2.25-1.36a1.24,1.24,0,0,1,1.49.3,1.23,1.23,0,0,1,.23,1c-0.28,1.16-.51,2.28-0.74,3.36L71,69.26c-0.37,1.88-.79,3.88-1.29,5.8s-1,3.54-1.57,5.36Zm4.45,32.06-1.2-.44-0.15-.09L71,112.11a31.61,31.61,0,0,1-2.21-9.67,28.43,28.43,0,0,1-.07-3,1.16,1.16,0,0,1,1.17-1.14,1.15,1.15,0,0,1,.79.3c1,0.94,2,1.83,3,2.68l0.23,0.21c1.36,1.21,2.79,2.51,4.14,3.82s2.64,2.73,4.09,4.31c0.38,0.41.77,0.82,1.15,1.24l0.11,0.12a0.12,0.12,0,0,0,.12,0,33.85,33.85,0,0,0,4.61-.41,0.5,0.5,0,0,0,.28-0.85c-1-1-1.92-2-3-3.18L84.94,106c-1.18-1.28-2.46-2.65-3.77-3.94s-2.57-2.43-3.85-3.58l-0.71-.64c-1.53-1.37-3-2.65-4.46-4.09-0.67-.62-1.33-1.28-2-1.94a1.38,1.38,0,0,1-.34-1.25c0.21-.9.43-1.79,0.67-2.65,0.52-1.94,1.09-3.75,1.58-5.3l0.32-1.06C73,79.72,73.55,78,74,76.17s0.91-3.86,1.36-6l0.18-.88c0.33-1.53.7-3.27,1.15-5.07,0.19-.79.42-1.68,0.7-2.63a1.41,1.41,0,0,1,.93-0.94C79.1,60.4,79.83,60.2,80.5,60l0.43-.12c2.12-.55,4.11-1,5.94-1.41l0.74-.17c1.82-.42,3.53-0.82,5.24-1.29s3.6-1.09,5.33-1.64l0.56-.18c1.81-.6,3.75-1.24,5.81-1.85,1.21-.34,2.19-0.6,3.1-0.81a43.64,43.64,0,0,1,6.85-1.08c0.84-.07,1.68-0.11,2.5-0.11,0.67,0,1.34,0,2,0a31.29,31.29,0,0,1,9.67,2.07,0.49,0.49,0,0,1,.3.28,31.19,31.19,0,0,1,2.23,9.67c0.06,0.94.08,1.93,0.06,3a1.17,1.17,0,0,1-2,.84c-1-.94-2-1.83-3-2.68l-0.5-.45c-1.36-1.22-2.65-2.39-3.87-3.57s-2.46-2.55-3.74-3.92l-0.38-.41-0.82-.9L116.73,55a0.41,0.41,0,0,0-.3-0.11,33.6,33.6,0,0,0-4.5.41,0.51,0.51,0,0,0-.29.85c0.87,0.91,1.71,1.82,2.65,2.81l0.77,0.85c1.22,1.31,2.48,2.67,3.8,4s2.92,2.76,4.38,4.07l0.69,0.6,0.54,0.5c1.11,1,2.26,2,3.43,3.16,0.67,0.64,1.43,1.4,2.23,2.25a0.55,0.55,0,0,1,.13.46c-0.23,1.07-.49,2.11-0.77,3.11-0.55,2-1.12,3.89-1.67,5.67l-0.13.42c-0.6,1.93-1.17,3.76-1.67,5.67s-0.88,3.75-1.35,6l-0.24,1.15c-0.33,1.54-.68,3.14-1.09,4.82q-0.33,1.38-.84,3.09a0.53,0.53,0,0,1-.34.33c-1.11.35-2.15,0.65-3,.89-2.12.56-4.12,1-5.92,1.42l-0.29.06c-1.87.43-3.81,0.87-5.72,1.39s-3.83,1.16-5.72,1.74l-0.06.05-0.94.31c-1.59.52-3.23,1.06-5,1.57l-0.12,0c-0.7.21-1.77,0.51-3,.79a45.45,45.45,0,0,1-6.84,1.08c-0.83.07-1.68,0.11-2.5,0.11s-1.36,0-2,0l-1.27-.09-1.12-.13-0.34-.05L77.38,114a1,1,0,0,1-.19,0c-0.3,0-.6-0.11-0.88-0.18-0.56-.1-1.12-0.23-1.66-0.37C74,113.3,73.24,113.08,72.44,112.81Zm29.89,14.49a26.43,26.43,0,0,1-7.6,1.19,24.77,24.77,0,0,1-6.35-.77,25.75,25.75,0,0,1-12-7.16,1.16,1.16,0,0,1-.23-1.26,1.18,1.18,0,0,1,1.07-.71h0.19c1.09,0.16,2.22.28,3.33,0.34,0.77,0,1.56.06,2.35,0.05a44.19,44.19,0,0,0,7.22-.69h0.2a1.2,1.2,0,0,1,.72.24,43,43,0,0,0,8.08,5.23c1,0.46,2,.91,3.07,1.32a1.19,1.19,0,0,1,.76,1.14A1.17,1.17,0,0,1,102.33,127.3Zm15.47-12.13a30.61,30.61,0,0,1-6.39,7.15,1.12,1.12,0,0,1-.74.28l-0.19,0a30.6,30.6,0,0,1-9.17-2.85c-0.94-.46-1.84-1-2.68-1.46a1.19,1.19,0,0,1,.27-2.14c1-.31,2-0.62,3-0.95l0.83-.26c2-.65,3.81-1.25,5.67-1.78,1.64-.45,3.32-0.84,5.09-1.23l0.71-.17c1.26-.28,2.54-0.57,3.87-0.89a1.33,1.33,0,0,1,.28,0,1.14,1.14,0,0,1,1,.57,1.18,1.18,0,0,1,0,1.14C118.87,113.45,118.34,114.34,117.8,115.17ZM136,103.24A1.18,1.18,0,0,0,136,103a31.43,31.43,0,0,0,.27-4.4,0.5,0.5,0,0,0-.79-0.41c-1,.67-1.92,1.31-3,2-0.77.52-1.65,1.06-2.61,1.59a1.11,1.11,0,0,1-.55.15,1.17,1.17,0,0,1-.94-0.44,1.23,1.23,0,0,1-.23-1c0.25-1,.45-2,0.65-3l0.21-.92c0.34-1.74.77-3.8,1.29-5.82,0.47-1.79,1-3.6,1.58-5.35l0.1-.32c0.39-1.24.77-2.51,1.16-3.84a1.17,1.17,0,0,1,1.13-.84,1.23,1.23,0,0,1,1,.54c0.6,1,1.09,1.83,1.5,2.65a31.29,31.29,0,0,1,3,9.45,26.75,26.75,0,0,1,.24,6.78c0,0.45-.09.89-0.17,1.32a24.88,24.88,0,0,1-19.14,21,1.17,1.17,0,0,1-.27,0,1.13,1.13,0,0,1-1-.66,1.14,1.14,0,0,1,.13-1.25c0.68-.85,1.33-1.76,2-2.71a43.27,43.27,0,0,0,4.22-8.54,1.4,1.4,0,0,1,.8-0.8,41.76,41.76,0,0,0,7.82-3.94l1.19-.79a1.06,1.06,0,0,0,.33-0.24Zm8.48-18.66a1.17,1.17,0,0,1-2.21.09c-0.41-1-.88-2.06-1.38-3a43.45,43.45,0,0,0-5.29-7.93,1.35,1.35,0,0,1-.29-1.08,42.81,42.81,0,0,0,.47-9.49c-0.1-1.18-.22-2.31-0.39-3.33a1.16,1.16,0,0,1,.25-0.93,1.21,1.21,0,0,1,.91-0.42,1.13,1.13,0,0,1,.79.3A24.93,24.93,0,0,1,144.44,84.58Z" transform="translate(-50.06 -32.81)"/>
  <path class="cls-1 st1" d="M67.84,65.36l-0.23.16L66.85,66c0.21-.16.42-0.31,0.64-0.45Z" transform="translate(-50.06 -32.81)"/>
</svg>